<?xml version="1.0" encoding="iso-8859-1"?>
<!-- Generator: Adobe Illustrator 19.0.0, SVG Export Plug-In . SVG Version: 6.00 Build 0)  -->
<svg version="1.1" id="Layer_1" xmlns="http://www.w3.org/2000/svg" xmlns:xlink="http://www.w3.org/1999/xlink" x="0px" y="0px"
	 viewBox="0 0 512 512" style="enable-background:new 0 0 512 512;" xml:space="preserve">
<rect x="217.6" y="371.2" style="fill:#6D7584;" width="76.8" height="76.8"/>
<rect x="12.8" y="64" style="fill:#6FB0B6;" width="486.4" height="307.2"/>
<path style="fill:#573A32;" d="M486.4,51.2H25.6C11.46,51.2,0,62.66,0,76.8v281.6C0,372.54,11.46,384,25.6,384h179.2v51.2H102.4
	c-7.074,0-12.8,5.726-12.8,12.8s5.726,12.8,12.8,12.8h307.2c7.074,0,12.8-5.726,12.8-12.8s-5.726-12.8-12.8-12.8H307.2V384h179.2
	c14.14,0,25.6-11.46,25.6-25.6V76.8C512,62.66,500.54,51.2,486.4,51.2z M281.6,435.2h-51.2V384h51.2V435.2z M486.4,358.4H25.6V76.8
	h460.8V358.4z"/>
<g>
</g>
<g>
</g>
<g>
</g>
<g>
</g>
<g>
</g>
<g>
</g>
<g>
</g>
<g>
</g>
<g>
</g>
<g>
</g>
<g>
</g>
<g>
</g>
<g>
</g>
<g>
</g>
<g>
</g>
</svg>
