<?xml version="1.0"?>
<svg xmlns="http://www.w3.org/2000/svg" xmlns:xlink="http://www.w3.org/1999/xlink" version="1.1" id="Capa_1" x="0px" y="0px" viewBox="0 0 490.667 490.667" style="enable-background:new 0 0 490.667 490.667;" xml:space="preserve" width="512px" height="512px">
  <linearGradient id="linear-gradient">
    <stop offset="0%" stop-color="#3A7FD3"/>
    <stop offset="100%" stop-color="#5332A3"/>
  </linearGradient>

<g><g>
	<g>
		<path d="M245.333,0c-5.888,0-10.667,4.779-10.667,10.667V96c0,5.888,4.779,10.667,10.667,10.667S256,101.888,256,96V10.667    C256,4.779,251.221,0,245.333,0z" data-original="#000000" class="active-path" data-old_color="#000000" fill="#4659BB"/>
	</g>
</g><g>
	<g>
		<path d="M245.333,42.667c-111.744,0-202.667,90.923-202.667,202.667S133.589,448,245.333,448S448,357.077,448,245.333    S357.077,42.667,245.333,42.667z M245.333,426.667C145.344,426.667,64,345.323,64,245.333S145.344,64,245.333,64    s181.333,81.344,181.333,181.333S345.323,426.667,245.333,426.667z" data-original="#000000" class="active-path" data-old_color="#000000" fill="url(#linear-gradient)"/>
	</g>
</g><g>
	<g>
		<path d="M245.333,384c-5.888,0-10.667,4.779-10.667,10.667V480c0,5.888,4.779,10.667,10.667,10.667S256,485.888,256,480v-85.333    C256,388.779,251.221,384,245.333,384z" data-original="#000000" class="active-path" data-old_color="#000000" fill="#4659BB"/>
	</g>
</g><g>
	<g>
		<path d="M96,234.667H10.667C4.779,234.667,0,239.445,0,245.333S4.779,256,10.667,256H96c5.888,0,10.667-4.779,10.667-10.667    S101.888,234.667,96,234.667z" data-original="#000000" class="active-path" data-old_color="#000000" fill="#3B7DD1"/>
	</g>
</g><g>
	<g>
		<path d="M480,234.667h-85.333c-5.888,0-10.667,4.779-10.667,10.667S388.779,256,394.667,256H480    c5.888,0,10.667-4.779,10.667-10.667S485.888,234.667,480,234.667z" data-original="#000000" class="active-path" data-old_color="#000000" fill="#5334A5"/>
	</g>
</g><g>
	<g>
		<path d="M245.333,192c-5.888,0-10.667,4.779-10.667,10.667V288c0,5.888,4.779,10.667,10.667,10.667S256,293.888,256,288v-85.333    C256,196.779,251.221,192,245.333,192z" data-original="#000000" class="active-path" data-old_color="#000000" fill="#4659BB"/>
	</g>
</g><g>
	<g>
		<path d="M288,234.667h-85.333c-5.888,0-10.667,4.779-10.667,10.667S196.779,256,202.667,256H288    c5.888,0,10.667-4.779,10.667-10.667S293.888,234.667,288,234.667z" data-original="#000000" class="active-path" data-old_color="#000000" fill="#4659BB"/>
	</g>
</g></g> </svg>
